<?xml version="1.0" standalone="no"?>
<!DOCTYPE svg PUBLIC "-//W3C//DTD SVG 1.1//EN" "http://www.w3.org/Graphics/SVG/1.1/DTD/svg11.dtd" >
<svg xmlns="http://www.w3.org/2000/svg">
<metadata>Generated by IcoMoon</metadata>
<defs>
<font id="icomoon" horiz-adv-x="1024">
<font-face units-per-em="1024" ascent="960" descent="-64" />
<missing-glyph horiz-adv-x="1024" />
<glyph unicode="&#x20;" horiz-adv-x="512" d="" />
<glyph unicode="&#xe900;" glyph-name="loading" d="M266.255 448.003c0-20.816-16.88-37.664-37.68-37.664h-190.895c-20.816 0-37.68 16.848-37.68 37.664 0 20.8 16.864 37.68 37.68 37.68h190.879c20.8 0 37.696-16.88 37.696-37.68v0zM1023.995 448.003c0-20.816-16.864-37.664-37.68-37.664h-190.895c-20.8 0-37.664 16.864-37.664 37.664s16.88 37.68 37.664 37.68h190.895c20.816 0 37.68-16.88 37.68-37.68v0zM549.677 922.336v-190.895c0-20.816-16.88-37.68-37.68-37.68s-37.68 16.88-37.68 37.68v190.895c0 20.8 16.864 37.664 37.68 37.664s37.68-16.864 37.68-37.664v0zM549.677 164.58v-190.895c0-20.8-16.864-37.68-37.68-37.68s-37.68 16.88-37.68 37.68v190.895c0 20.8 16.88 37.68 37.68 37.68s37.68-16.88 37.68-37.68v0zM299.199 570.946c-6.976-12.096-19.664-18.832-32.656-18.832-6.4 0-12.88 1.632-18.816 5.040l-165.295 95.488c-18.016 10.416-24.176 33.472-13.776 51.488 10.416 18.016 33.472 24.192 51.472 13.776l165.311-95.488c18-10.416 24.176-33.44 13.76-51.472v0zM955.339 191.876c-7.008-12.080-19.664-18.832-32.672-18.832-6.384 0-12.88 1.648-18.816 5.040l-165.279 95.52c-18.016 10.384-24.208 33.456-13.776 51.472 10.384 18.048 33.472 24.208 51.472 13.776l165.295-95.488c18.016-10.4 24.16-33.472 13.776-51.488v0zM781.9 839.857l-95.488-165.279c-6.992-12.080-19.664-18.848-32.672-18.848-6.384 0-12.88 1.648-18.816 5.056-18.032 10.4-24.192 33.456-13.76 51.488l95.488 165.263c10.4 18.048 33.44 24.208 51.472 13.792 18.016-10.4 24.208-33.456 13.776-51.472v0zM402.846 183.732l-95.488-165.295c-7.008-12.080-19.664-18.848-32.672-18.848-6.416 0-12.896 1.648-18.832 5.072-18 10.416-24.192 33.456-13.776 51.488l95.488 165.279c10.416 18.016 33.472 24.176 51.488 13.76 18.032-10.4 24.208-33.44 13.792-51.456v0zM389.182 660.881c-5.92-3.424-12.4-5.040-18.784-5.040-13.040 0-25.696 6.768-32.672 18.864l-95.392 165.311c-10.4 18.032-4.224 41.072 13.808 51.488s41.072 4.224 51.472-13.808l95.376-165.327c10.4-18.048 4.224-41.088-13.808-51.488v0zM767.836 4.501c-5.936-3.408-12.416-5.040-18.8-5.040-13.008 0-25.696 6.768-32.672 18.864l-95.376 165.343c-10.4 18.032-4.224 41.072 13.792 51.488 18.032 10.384 41.056 4.192 51.472-13.808l95.392-165.359c10.416-18.048 4.224-41.088-13.808-51.488v0zM941.675 652.37l-165.343-95.392c-5.936-3.408-12.416-5.040-18.8-5.040-13.008 0-25.696 6.768-32.672 18.864-10.4 18.032-4.224 41.072 13.808 51.472l165.343 95.408c18.016 10.368 41.056 4.192 51.472-13.808 10.4-18.048 4.208-41.088-13.808-51.504v0zM285.327 273.715l-165.359-95.376c-5.92-3.424-12.4-5.040-18.784-5.040-13.040 0-25.696 6.768-32.672 18.864-10.4 18.032-4.224 41.072 13.808 51.488l165.327 95.376c18.032 10.384 41.072 4.224 51.488-13.808 10.4-18.048 4.208-41.088-13.808-51.504v0z" />
<glyph unicode="&#xe901;" glyph-name="one" d="M1024.244 330.728c0.171-4.925 0.268-9.899 0.268-14.97 0-4.779-1.268-9.216-3.34-13.166-6.339-42.642-24.722-118.565-77.8-190.805-1.243-2.901-2.853-5.413-4.486-7.070-0.707-0.366-1.243-0.902-1.877-1.317-3.56-4.584-7.217-9.167-11.069-13.678l-1.073 0.561c-23.918-27.965-51.224-48.981-85.309-69.998v-35.182c3.413-52.76-37.669-49.25-37.669-49.25h-123.319c-17.115 0-23.966 7.046-30.818 17.603-3.438 3.511-3.438 10.533-6.851 17.579h-219.209c-3.413-38.693-27.404-38.693-37.669-38.693h-123.294c-23.991 3.511-37.693 14.068-37.693 38.693v59.806c-58.222 42.203-89.039 73.874-106.179 105.521-6.851 17.603-13.702 38.693-17.115 52.76h-61.659c-13.702 0-37.669 14.068-37.669 38.693v165.352c0 28.136 27.404 42.203 51.371 42.203h51.371c17.14 66.828 44.544 109.056 68.51 140.702 13.702 17.579 30.818 31.671 44.52 42.203l-3.413 42.228c-3.438 28.136-3.438 56.271-6.851 84.407 20.553 3.535 54.808-7.022 71.924-14.068 13.702-3.511 27.404 0 37.669 0 17.14 98.499 106.179 235.691 287.72 225.134 154.112-7.022 260.291-140.702 263.729-260.291 0-21.114 0-42.228-3.438-66.853 59.124-47.226 152.844-130.097 160.427-291.938l0.585 0.122c0 0-0.049-2.219-0.293-6.29zM291.547 356.718c0-17.603 6.851-24.625 13.702-24.625 17.115 0 20.553 3.511 23.966 10.557 3.438 21.090 10.289 38.693 37.693 38.693 27.38 0 30.818-14.068 37.669-38.693 0-7.046 6.851-10.557 13.702-10.557h10.264c0 0 3.438 0 6.851 3.511 3.438 3.511 6.851 10.557 6.851 21.114 0 28.136-23.966 66.828-75.337 63.317-47.957-3.535-75.362-38.693-75.362-63.317zM819.005 699.197c-6.851 98.499-99.328 204.020-205.507 211.066h-10.264c-164.401 10.533-239.762-144.238-243.176-211.066-3.438-70.363 6.851-105.545 20.529-130.17 6.851-14.068 10.289-21.090 17.14-28.136h173.592c-5.851 5.413-9.192 13.214-9.192 21.114v28.136h-78.775c-17.14 0-27.404 10.557-27.404 28.136 0 17.603 13.702 28.16 27.404 28.16h78.775v45.714h-78.775c-17.14 0-27.404 10.557-27.404 28.136 0 17.603 13.702 28.16 27.404 28.16h41.106l-54.808 56.271c-10.289 10.557-17.115 31.671-3.438 42.228 13.702 10.533 30.842 7.022 41.106-3.535l78.775-80.896 82.213 80.896c13.702 10.557 23.966 14.068 37.669 3.535 13.702-10.557 10.289-28.16 0-38.717l-58.222-56.271h41.106c17.115 0 27.404-10.557 27.404-28.136 0-17.603-13.702-28.136-27.404-28.136h-71.924v-49.25h75.337c17.14 0 27.404-10.557 27.404-28.16 0-17.579-13.702-28.136-27.404-28.136h-75.337v-28.136c0-9.094-3.706-16.262-9.143-21.114h176.957c6.851 17.603 6.851 17.603 13.702 31.671 13.702 24.625 23.966 63.317 20.553 126.635z" />
<glyph unicode="&#xe902;" glyph-name="arrow-left" d="M734.81-64c36.442 34.575 42.074 38.31 78.276 72.584-141.192 142.005-311.326 282.835-451.976 424.328 140.439 141.252 310.694 312.32 452.066 454.536-36.232 34.334-41.864 38.069-78.246 72.553-173.448-174.411-348.552-350.539-524.107-527.089 175.496-176.489 350.449-322.379 523.987-496.911v0 0z" />
<glyph unicode="&#xe903;" glyph-name="notice" d="M565.146 34.509c0-102.571-78.677-49.63-78.677-49.63l-340.719 286.686h-52.599c-32.597 0-59.017 26.863-59.017 60.041v240.265c0 33.178 35.669 80.93 68.267 80.93h68.267l315.802 260.54c0 0 78.677 53.385 78.677-50.039v-828.791zM742.161 291.567c98.338 80.111 91.785 231.936 0 300.305-36.045 21.675-59.017-50.039-59.017-50.039s91.785-115.132 0-200.226c-18.022-23.347 16.384-71.714 59.017-50.039v0 0zM791.313 762.061c-13.107 11.674-77.005-31.71-39.322-70.076 195.038-165.171 198.281-320.307 0-490.496-29.525-28.365 9.83-81.783 39.322-70.076 270.404 125.133 258.97 513.843 0 630.647v0 0zM791.313 762.061v0z" />
<glyph unicode="&#xe904;" glyph-name="close" d="M972.945-64l50.331 52.141-459.859 459.859 460.583 460.945-52.141 49.969-459.859-459.859-460.945 460.945-49.969-52.141 459.859-459.859-460.945-460.945 52.141-50.331 459.859 459.859 460.945-460.583z" />
<glyph unicode="&#xe905;" glyph-name="search" d="M1023.147-3.89l-309.502 309.502c55.723 68.442 89.475 156.706 89.475 252.853 0 222.025-179.987 402.012-402.012 402.012s-402.012-179.987-402.012-402.012c0-222.025 179.987-402.012 402.012-402.012 96.147 0 184.41 33.752 253.588 90.055l-0.735-0.579 309.928-309.076zM85.262 558.415c0 175.171 142.004 317.176 317.176 317.176s317.176-142.004 317.176-317.176c0-175.171-142.004-317.176-317.176-317.176v0c-175.074 0.243-316.933 142.102-317.176 317.153v0.023z" />
<glyph unicode="&#xe906;" glyph-name="home1" d="M755.81-64h-48.762v438.857h-390.095v-438.857h-316.952v658.286l512 365.714 512-365.714v-658.286h-268.19zM48.762 580.364v-595.602h219.429v438.857h487.619v-438.857h219.429v595.602l-463.238 330.874-463.238-330.874z" />
<glyph unicode="&#xe907;" glyph-name="mine1" d="M512-64c-282.77 0-512 229.23-512 512s229.23 512 512 512c282.77 0 512-229.23 512-512s-229.23-512-512-512zM512 911.238c-255.829 0-463.238-207.409-463.238-463.238s207.409-463.238 463.238-463.238c255.829 0 463.238 207.409 463.238 463.238s-207.409 463.238-463.238 463.238zM725.699 204.532c-8.923 1.048-18.408 16.018-18.408 16.018-16.238 109.105-97.353 192.146-195.218 192.146s-178.981-83.042-195.218-192.146c0 0-3.73-14.75-18.408-16.018-34.231-2.999-30.11 16.018-30.11 16.018 3.145 100.157 64.536 185.368 150.942 221.55-45.227 31.573-75.045 85.48-75.045 146.725 0 97.28 75.142 176.152 167.838 176.152s167.838-78.872 167.838-176.152c0-61.245-29.818-115.151-75.045-146.725 86.406-36.181 147.797-121.393 150.942-221.55 0 0-2.121-19.358-30.11-16.018zM634.149 588.824c0 70.754-54.662 128.098-122.075 128.098s-122.075-57.344-122.075-128.098c0-70.729 54.662-128.098 122.075-128.098s122.075 57.368 122.075 128.098z" />
<glyph unicode="&#xe908;" glyph-name="home" d="M1024 570.246v-634.246h-316.952v438.857h-390.095v-438.857h-316.952v634.246h-24.113l24.113 17.14v6.9h9.728l514.511 365.641 491.618-365.641h8.143v-6.046l24.21-17.993h-24.21z" />
<glyph unicode="&#xe909;" glyph-name="game1" d="M725.041-39.473l-73.435 194.341h-280.357l-73.143-194.341h-298.691v975.458h1048.015v-975.458h-322.389zM973.605 886.638h-924.721v-877.47h185.442l82.188 195.584h391.851l80.774-195.584h184.466v877.47zM598.552 533.333l120.686 120.686 120.686-120.686-120.686-120.661-120.686 120.661zM316.709 424.375h-72.411v72.411h-74.045v72.411h74.045v74.045h72.411v-74.045h74.045v-72.411h-74.045v-72.411z" />
<glyph unicode="&#xe90a;" glyph-name="time" horiz-adv-x="866" d="M472.615 800.492v80.738h78.769c21.752 0 39.385 17.633 39.385 39.385s-17.633 39.385-39.385 39.385v0h-236.308c-21.752 0-39.385-17.633-39.385-39.385s17.633-39.385 39.385-39.385v0h78.769v-80.738c-221.713-20.84-393.846-206.037-393.846-431.437 0-239.267 193.964-433.231 433.231-433.231s433.231 193.964 433.231 433.231c0 225.4-172.133 410.596-392.116 431.305l-1.73 0.132zM433.231 14.769c-0.526-0.003-1.149-0.004-1.772-0.004-195.766 0-354.466 158.7-354.466 354.466 0 195.143 157.691 353.455 352.598 354.461h7.185c195.003-1.006 352.694-159.319 352.694-354.462 0-195.766-158.7-354.466-354.466-354.466-0.623 0-1.246 0.002-1.868 0.005h0.096zM472.615 387.348v178.806c0 21.752-17.633 39.385-39.385 39.385s-39.385-17.633-39.385-39.385v0-196.923c0-0.001 0-0.002 0-0.003 0-11.953 5.325-22.663 13.732-29.886l0.052-0.044 137.846-118.154c6.839-5.876 15.802-9.454 25.6-9.454 21.753 0 39.387 17.634 39.387 39.387 0 11.954-5.326 22.665-13.734 29.888l-0.052 0.044z" />
<glyph unicode="&#xe90b;" glyph-name="mine" d="M512-64c-282.77 0-512 229.23-512 512s229.23 512 512 512c282.77 0 512-229.23 512-512s-229.23-512-512-512zM604.867 442.1c45.227 31.573 75.045 85.48 75.045 146.725 0 97.28-75.142 176.128-167.838 176.128s-167.838-78.848-167.838-176.128c0-61.245 29.818-115.151 75.045-146.725-86.406-36.181-147.797-121.393-150.942-221.55 0 0-4.12-19.017 30.11-16.018 14.677 1.268 18.408 16.018 18.408 16.018 16.238 109.105 97.353 192.146 195.218 192.146s178.981-83.042 195.218-192.146c0 0 9.484-14.97 18.408-16.018 27.989-3.34 30.11 16.018 30.11 16.018-3.145 100.157-64.536 185.368-150.942 221.55zM512.073 460.727c-67.413 0-122.075 57.368-122.075 128.098 0 70.754 54.662 128.098 122.075 128.098s122.075-57.344 122.075-128.098c0-70.729-54.662-128.098-122.075-128.098z" />
<glyph unicode="&#xe90c;" glyph-name="password" horiz-adv-x="796" d="M711.111 590.222h-512v113.778c0 109.966 89.145 199.111 199.111 199.111s199.111-89.145 199.111-199.111v0-28.444h56.889v28.444c0 141.385-114.615 256-256 256s-256-114.615-256-256v0-113.778h-56.889c-47.128 0-85.333-38.205-85.333-85.333v0-483.556c0-47.128 38.205-85.333 85.333-85.333v0h625.778c47.128 0 85.333 38.205 85.333 85.333v0 483.556c0 47.128-38.205 85.333-85.333 85.333v0zM739.556 21.333c0-15.709-12.735-28.444-28.444-28.444v0h-625.778c-15.709 0-28.444 12.735-28.444 28.444v0 483.556c0 15.709 12.735 28.444 28.444 28.444v0h625.778c15.709 0 28.444-12.735 28.444-28.444v0zM398.222 462.222c-70.302-0.513-127.095-57.622-127.095-127.997 0-60.281 41.67-110.829 97.776-124.411l0.875-0.179v-117.191h56.889v117.191c56.981 13.761 98.651 64.309 98.651 124.59 0 70.374-56.793 127.484-127.046 127.997h-0.049zM398.222 263.111c-39.274 0-71.111 31.838-71.111 71.111s31.838 71.111 71.111 71.111c39.274 0 71.111-31.838 71.111-71.111v0c0-39.274-31.838-71.111-71.111-71.111v0z" />
<glyph unicode="&#xe90d;" glyph-name="game" d="M726.114-39.473l-73.533 194.341h-280.771l-73.265-194.341h-299.13v975.458h1025.17v-975.458h-298.472zM390.754 569.198h-74.045v74.045h-72.411v-74.045h-74.045v-72.411h74.045v-72.411h72.411v72.411h74.045v72.411zM719.238 654.019l-120.686-120.686 120.686-120.661 120.686 120.661-120.686 120.686z" />
<glyph unicode="&#xe90e;" glyph-name="arrow-right" d="M315.077 960l-78.769-118.154 393.846-393.846-393.846-393.846 78.769-118.154 512 512-512 512z" />
<glyph unicode="&#xe90f;" glyph-name="phone" horiz-adv-x="768" d="M682.667 960h-597.333c-47.128 0-85.333-38.205-85.333-85.333v0-853.333c0-47.128 38.205-85.333 85.333-85.333v0h597.333c47.128 0 85.333 38.205 85.333 85.333v0 853.333c0 47.128-38.205 85.333-85.333 85.333v0zM711.111 21.333c0-15.709-12.735-28.444-28.444-28.444v0h-597.333c-15.709 0-28.444 12.735-28.444 28.444v0 142.222h654.222zM711.111 220.444h-654.222v568.889h654.222zM56.889 846.222v28.444c0 15.709 12.735 28.444 28.444 28.444v0h597.333c15.709 0 28.444-12.735 28.444-28.444v0-28.444zM355.556 49.778h85.333c15.709 0 28.444 12.735 28.444 28.444s-12.735 28.444-28.444 28.444v0h-85.333c-15.709 0-28.444-12.735-28.444-28.444s12.735-28.444 28.444-28.444v0z" />
<glyph unicode="&#xe910;" glyph-name="register" horiz-adv-x="1172" d="M1172.139 174.933h-170.667v170.667h-68.267v-170.667h-170.667v-68.267h170.667v-170.667h68.267v170.667h170.667v68.267zM665.259 424.107c82.522 52.105 136.533 142.815 136.533 246.139 0 160.236-129.897 290.133-290.133 290.133s-290.133-129.897-290.133-290.133c0-103.324 54.011-194.034 135.34-245.435l1.193-0.704c-209.232-67.445-357.966-260.394-358.059-488.095v-0.011h68.267c0 0.003 0 0.006 0 0.010 0 245.067 198.666 443.733 443.733 443.733 114.386 0 218.662-43.281 297.347-114.36l-0.387 0.344 44.373 50.517c-52.357 47.383-115.161 84.301-184.453 106.842l-3.622 1.019zM290.133 669.867c0 122.534 99.333 221.867 221.867 221.867s221.867-99.333 221.867-221.867c0-122.534-99.333-221.867-221.867-221.867v0c-122.455 0.194-221.673 99.411-221.867 221.848v0.019z" />
<glyph unicode="&#xe911;" glyph-name="arrow-down" d="M1024 644.923l-118.154 78.769-393.846-393.846-393.846 393.846-118.154-78.769 512-512 512 512z" />
<glyph unicode="&#xe912;" glyph-name="more" horiz-adv-x="626" d="M0 846.178l398.178-398.178-398.178-398.178 113.822-113.822 512 512-512 512-113.822-113.822z" />
<glyph unicode="&#xe913;" glyph-name="backTop" horiz-adv-x="778" d="M777.534 428.579l-388.414 390.179-0.353-0.353-0.353 0.353-388.414-390.179 49.434-49.788 304.022 305.434v-748.226h70.621v747.873l303.669-305.081 49.788 49.788zM0.353 960h776.828v-70.621h-776.828v70.621z" />
<glyph unicode="&#xe914;" glyph-name="offline" d="M512 960c-282.771 0-512-229.229-512-512s229.229-512 512-512 512 229.229 512 512-229.229 512-512 512zM512-18.938c-257.888 0-466.938 209.056-466.938 466.938s209.050 466.938 466.938 466.938c257.882 0 466.938-209.056 466.938-466.938s-209.056-466.938-466.938-466.938zM512 364.8c-144.922 0-198.4-76.8-198.4-76.8v-32c0 0 44.589 76.8 198.4 76.8s198.4-76.8 198.4-76.8v32c0 0-53.478 76.8-198.4 76.8zM355.2 569.6c-22.976 0-41.6-18.624-41.6-41.6s18.624-41.6 41.6-41.6 41.6 18.624 41.6 41.6-18.624 41.6-41.6 41.6zM668.8 569.6c-22.976 0-41.6-18.624-41.6-41.6s18.624-41.6 41.6-41.6 41.6 18.624 41.6 41.6-18.624 41.6-41.6 41.6z" />
<glyph unicode="&#xe915;" glyph-name="failed" d="M512 883.107c-239.918 0-435.107-195.188-435.107-435.107s195.188-435.107 435.107-435.107 435.107 195.188 435.107 435.107-195.188 435.107-435.107 435.107zM512 46.364c-221.463 0-401.636 180.174-401.636 401.636s180.173 401.637 401.636 401.637 401.636-180.174 401.636-401.636-180.174-401.637-401.636-401.637zM690.605 594.659l-146.659-146.659 146.659-146.659c6.537-6.533 6.537-17.131 0-23.664-3.264-3.268-7.55-4.903-11.832-4.903s-8.567 1.634-11.832 4.903l-146.658 146.659-146.659-146.659c-3.264-3.268-7.55-4.903-11.832-4.903s-8.567 1.634-11.832 4.903c-6.537 6.533-6.537 17.131 0 23.664l146.659 146.659-146.658 146.659c-6.537 6.533-6.537 17.131 0 23.664 6.529 6.537 17.135 6.537 23.664 0l146.659-146.659 146.659 146.659c6.529 6.537 17.135 6.537 23.664 0 6.537-6.533 6.537-17.131 0-23.664z" />
<glyph unicode="&#xe916;" glyph-name="success" d="M511.97-1.066c-246.493 0-446.997 201.463-446.997 449.066s200.504 449.066 446.997 449.066 447.057-201.463 447.057-449.066-200.565-449.066-447.057-449.066zM511.97 866.366c-229.525 0-416.297-187.672-416.297-418.366s186.774-418.366 416.297-418.366c229.584 0 416.358 187.672 416.358 418.366s-186.774 418.366-416.358 418.366zM472.756 314.381c-4.077 0-7.975 1.619-10.852 4.527l-117.76 118.27 21.705 21.645 106.908-107.327 224.608 225.627 21.705-21.645-235.461-236.569c-2.879-2.908-6.775-4.527-10.853-4.527z" />
<glyph unicode="&#xe917;" glyph-name="backBefore" horiz-adv-x="1317" d="M914.286 740.571h-771.657l167.863 167.863-51.931 51.566-258.56-258.56 258.56-258.56 51.566 51.566-172.617 172.983h776.777c181.781 0 329.143-147.362 329.143-329.143s-147.362-329.143-329.143-329.143v0h-438.857v-73.143h438.857c222.176 0 402.286 180.109 402.286 402.286s-180.109 402.286-402.286 402.286v0z" />
<glyph unicode="&#xe918;" glyph-name="charts" horiz-adv-x="1303" d="M177.804-64h947.665l177.804 819.2-355.375-175.476-296.262 380.276-296.262-380.276-355.375 175.476z" />
<glyph unicode="&#xe919;" glyph-name="welfare" horiz-adv-x="977" d="M383.913 667.761c227.090 0 383.913 76.783 383.913 145.887v0c0 69.57-156.823 146.352-383.913 146.352s-383.913-76.783-383.913-145.887v0c0-69.57 156.823-146.352 383.913-146.352zM767.825 600.053v105.867c-93.070-60.495-215.456-99.585-383.913-99.585s-314.11 39.089-383.913 99.585v-205.451c0-68.872 157.521-145.421 384.611-145.421h10.936v72.129c0 84.693 98.189 175.669 314.11 175.669 20.475-0.233 39.787-1.163 58.169-2.792zM395.546 293.388h-10.936c-168.224 0-314.808 38.391-384.611 99.352v-205.917c0-69.802 157.521-145.887 384.611-145.887h13.728c-1.724 6.916-2.814 14.911-3.022 23.125l-0.003 0.142zM709.657 556.31c-129.6 0-267.576-45.372-267.576-129.367v-361.576c0-83.995 137.976-129.134 267.576-129.134s267.576 45.139 267.576 129.134v361.576c0 83.995-137.976 129.367-267.576 129.367zM921.856 65.367c0-30.248-82.599-74.223-212.199-74.223s-212.199 43.975-212.199 74.223v100.050c57.933-30.754 126.663-48.812 199.61-48.812 4.427 0 8.839 0.067 13.234 0.199l-0.644-0.015c3.751-0.117 8.162-0.183 12.589-0.183 72.947 0 141.677 18.058 201.962 49.947l-2.353-1.135zM921.856 246.155c0-30.248-82.599-74.223-212.199-74.223s-212.199 43.51-212.199 74.223v99.817c57.933-30.754 126.663-48.812 199.61-48.812 4.427 0 8.839 0.067 13.234 0.199l-0.644-0.015c3.751-0.117 8.162-0.183 12.589-0.183 72.947 0 141.677 18.058 201.962 49.947l-2.353-1.135zM921.856 426.478c0-30.248-82.599-74.223-212.199-74.223s-212.199 43.975-212.199 74.223v0c0 30.248 82.599 74.223 212.199 74.223s212.199-43.975 212.199-74.223z" />
<glyph unicode="&#xe91a;" glyph-name="shop" horiz-adv-x="1199" d="M887.134 446.252c-36.928-36.819-87.625-59.846-143.699-60.689l-0.161-0.002c-57.947 1.988-110.238 24.68-150.046 60.863l0.192-0.172c-31.23-37.213-77.762-60.704-129.781-60.704-0.735 0-1.469 0.005-2.201 0.014l0.111-0.001c-57.947 1.988-110.238 24.68-150.046 60.863l0.192-0.172c-37.4-37.512-89.128-60.722-146.276-60.722-1.258 0-2.513 0.011-3.766 0.034l0.188-0.003h-11.988v-352.406c-0.032-0.921-0.051-2.004-0.051-3.091 0-50.527 39.798-91.758 89.756-94.057l0.207-0.008h719.298c49.826 0.141 90.164 40.565 90.164 90.411 0 2.373-0.091 4.725-0.271 7.052l0.019-0.309v352.406h-11.988c-57.947 1.988-110.238 24.68-150.046 60.863l0.192-0.172zM1036.987 960h-869.151l-167.836-349.659c-0.016-0.833-0.025-1.815-0.025-2.799 0-83.573 66.636-151.582 149.674-153.794l0.205-0.004c83.243 2.217 149.879 70.226 149.879 153.799 0 0.984-0.009 1.966-0.028 2.946l0.002-0.147c-0.016-0.833-0.025-1.815-0.025-2.799 0-83.573 66.636-151.582 149.674-153.794l0.205-0.004c83.243 2.217 149.879 70.226 149.879 153.799 0 0.984-0.009 1.966-0.028 2.946l0.002-0.147c-0.016-0.833-0.025-1.815-0.025-2.799 0-83.573 66.636-151.582 149.674-153.794l0.205-0.004c83.243 2.217 149.879 70.226 149.879 153.799 0 0.984-0.009 1.966-0.028 2.946l0.002-0.147c0-82.762 67.092-149.854 149.854-149.854s149.854 67.092 149.854 149.854v0zM874.146 685.268h-549.463c-13.794 0-24.976 11.182-24.976 24.976s11.182 24.976 24.976 24.976v0h549.463c13.794 0 24.976-11.182 24.976-24.976s-11.182-24.976-24.976-24.976v0z" />
<glyph unicode="&#xe91b;" glyph-name="original" horiz-adv-x="976" d="M928.744 960h-881.116c-26.304 0-47.628-21.324-47.628-47.628v0-928.744c0-26.304 21.324-47.628 47.628-47.628v0h762.047l166.698 166.698v809.674c0 26.304-21.324 47.628-47.628 47.628v0zM404.837 174.14h-166.698c-26.304 0-47.628 21.324-47.628 47.628v0 190.512c0 26.304 21.324 47.628 47.628 47.628v0h166.698c26.304 0 47.628-21.324 47.628-47.628v0-190.512c0-26.304-21.324-47.628-47.628-47.628v0zM750.14 174.14h-166.698c-19.728 0-35.721 15.993-35.721 35.721s15.993 35.721 35.721 35.721v0h166.698c19.728 0 35.721-15.993 35.721-35.721s-15.993-35.721-35.721-35.721v0zM750.14 388.465h-166.698c-19.728 0-35.721 15.993-35.721 35.721s15.993 35.721 35.721 35.721v0h166.698c19.728 0 35.721-15.993 35.721-35.721s-15.993-35.721-35.721-35.721v0zM750.14 650.419h-523.907c-19.728 0-35.721 15.993-35.721 35.721s15.993 35.721 35.721 35.721v0h523.907c19.728 0 35.721-15.993 35.721-35.721s-15.993-35.721-35.721-35.721v0z" />
<glyph unicode="&#xe91c;" glyph-name="choose" horiz-adv-x="1792" d="M896-64l-896 1024h1792z" />
<glyph unicode="&#xe91d;" glyph-name="gifts" horiz-adv-x="1161" d="M1092.267 755.2h-102.4v136.533c0 0.014 0 0.030 0 0.047 0 37.703-30.564 68.267-68.267 68.267-10.008 0-19.514-2.154-28.078-6.023l0.43 0.174-307.2-136.533-6.485-3.413-6.485 3.413-307.2 136.533c-8.134 3.696-17.64 5.849-27.648 5.849-37.703 0-68.267-30.564-68.267-68.267 0-0.016 0-0.033 0-0.049v0.003-136.533h-102.4c-37.703 0-68.267-30.564-68.267-68.267v0-170.667c0-37.703 30.564-68.267 68.267-68.267v0h34.133v-443.733c0-37.703 30.564-68.267 68.267-68.267v0h785.067c37.703 0 68.267 30.564 68.267 68.267v0 443.733h68.267c37.703 0 68.267 30.564 68.267 68.267v0 170.667c0 37.703-30.564 68.267-68.267 68.267v0zM921.6 891.733v-136.533h-307.2zM238.933 891.733l307.2-136.533h-307.2zM68.267 516.267v170.667h477.867v-170.667h-477.867zM170.667 4.267v443.733h375.467v-443.733zM955.733 4.267h-341.333v443.733h341.333zM1092.267 516.267h-477.867v170.667h477.867z" />
<glyph unicode="&#xe91e;" glyph-name="delete" horiz-adv-x="990" d="M341.333 960h307.2v-68.267h-307.2v68.267zM989.867 789.333h-989.867v-68.267h136.533v-682.667c0-56.554 45.846-102.4 102.4-102.4v0h512c56.554 0 102.4 45.846 102.4 102.4v0 682.667h136.533zM785.067 38.4c0-18.851-15.282-34.133-34.133-34.133v0h-512c-18.851 0-34.133 15.282-34.133 34.133v0 682.667h580.267zM375.467 584.533h68.267v-443.733h-68.267v443.733zM546.133 584.533h68.267v-443.733h-68.267v443.733z" />
<glyph unicode="&#xe91f;" glyph-name="games" horiz-adv-x="1161" d="M989.867 755.2h-409.6v136.533h170.667c18.851 0 34.133 15.282 34.133 34.133s-15.282 34.133-34.133 34.133v0h-204.8c-18.851 0-34.133-15.282-34.133-34.133v0-170.667h-359.424c-85.47-5.256-152.797-75.858-152.797-162.186 0-2.983 0.080-5.947 0.239-8.891l-0.018 0.41v-427.691c0-145.067 95.915-220.843 190.464-220.843 117.419 0 183.296 58.368 251.563 128.683 35.911 23.132 79.766 36.878 126.832 36.878 0.891 0 1.78-0.005 2.669-0.015l-0.135 0.001c36.864 0 109.568-16.725 129.365-37.205 68.267-70.315 134.144-128.683 251.563-128.683 115.607 2.376 208.415 96.654 208.415 212.608 0 3.256-0.073 6.495-0.218 9.716l0.016-0.458v427.008c-3.614 92.767-77.9 167.053-170.331 170.656l-0.336 0.010zM1092.267 157.525c0.139-2.378 0.218-5.159 0.218-7.958 0-78.343-61.956-142.215-139.544-145.292l-0.279-0.009c-91.136 0-139.264 42.667-202.411 107.861-39.595 40.96-136.533 57.685-178.517 57.685-50.859 0-139.947-18.091-178.517-57.685-63.488-65.195-111.616-107.861-202.752-107.861-58.709 0-122.197 47.787-122.197 152.576v427.691c0 49.152 32.085 102.4 84.309 102.4h837.291c54.783-4.197 98.203-47.617 102.377-102.023l0.023-0.377zM938.667 413.867c0-47.128-38.205-85.333-85.333-85.333s-85.333 38.205-85.333 85.333c0 47.128 38.205 85.333 85.333 85.333s85.333-38.205 85.333-85.333zM341.333 516.267h-68.267v-68.267h-68.267v-68.267h68.267v-68.267h68.267v68.267h68.267v68.267h-68.267v68.267z" />
<glyph unicode="&#xe920;" glyph-name="information" horiz-adv-x="960" d="M896 960h-832c-35.346 0-64-28.654-64-64v0-896c0-35.346 28.654-64 64-64v0h832c35.346 0 64 28.654 64 64v0 896c0 35.346-28.654 64-64 64v0zM896 0h-832v896h832zM720 288h-128c-26.51 0-48-21.49-48-48s21.49-48 48-48v0h128c26.51 0 48 21.49 48 48s-21.49 48-48 48v0zM256 480h128c35.346 0 64-28.654 64-64v-160c0-35.346-28.654-64-64-64h-128c-35.346 0-64 28.654-64 64v160c0 35.346 28.654 64 64 64zM240 608h480c26.51 0 48 21.49 48 48s-21.49 48-48 48v0h-480c-26.51 0-48-21.49-48-48s21.49-48 48-48v0zM720 480h-128c-26.51 0-48-21.49-48-48s21.49-48 48-48v0h128c26.51 0 48 21.49 48 48s-21.49 48-48 48v0z" />
<glyph unicode="&#xe921;" glyph-name="taodo" horiz-adv-x="1286" d="M602.541-64.663c-254.522 0-528.826 113.944-587.401 374.544-9.777 36.119-15.393 77.588-15.393 120.369 0 104.085 33.245 200.404 89.696 278.92l-0.975-1.425c67.852 92.944 173.071 155.113 293.115 164.311l1.359 0.084c6.659-0.157 14.504-0.246 22.37-0.246 109.437 0 214.836 17.29 313.614 49.286l-7.195-2.015c160.25 65.426 308.841 51.998 418.917-37.797 121.956-99.466 178.486-278.559 147.32-466.992-52.772-319.064-364.708-470.418-650.396-478.817-8.344-0.111-16.688-0.221-25.032-0.221zM752.514 816.327c-103.5-42.328-212.636-47.578-363.713-54.872-87.959-7.833-163.952-53.238-212.663-119.853l-0.581-0.833c-41.992-58.089-67.165-130.744-67.165-209.278 0-34.48 4.852-67.826 13.911-99.393l-0.623 2.538c46.694-207.773 286.351-294.584 502.855-287.953 241.094 7.128 503.297 129.305 545.791 386.259 24.259 146.601-18.18 288.727-107.976 362.055-79.020 64.432-186.001 71.836-309.449 21.33v0zM524.792 470.794c-1.422-0.014-3.104-0.022-4.787-0.022-42.455 0-83.745 4.982-123.32 14.395l3.609-0.724c-24.228 6.35-41.812 28.050-41.812 53.856 0 4.676 0.577 9.217 1.665 13.556l-0.081-0.383c5.721 24.47 27.353 42.416 53.176 42.416 4.544 0 8.958-0.556 13.178-1.603l-0.375 0.079c116.32-28.569 295.966 3.702 355.866 63.99 9.813 9.933 23.434 16.085 38.492 16.085 15.248 0 29.023-6.308 38.857-16.458l0.014-0.014c9.802-10.096 15.846-23.888 15.846-39.092 0-15.371-6.177-29.298-16.183-39.437l0.006 0.006c-71.284-71.56-210.26-106.649-334.15-106.649z" />
<glyph unicode="&#xe922;" glyph-name="help" d="M512 960c-282.77 0-512-229.23-512-512s229.23-512 512-512c282.77 0 512 229.23 512 512v0c0 282.77-229.23 512-512 512v0zM512-12.8c-254.493 0-460.8 206.307-460.8 460.8s206.307 460.8 460.8 460.8c254.493 0 460.8-206.307 460.8-460.8v0c0-254.493-206.307-460.8-460.8-460.8v0zM636.928 686.848c26.637-25.535 43.19-61.407 43.19-101.147 0-2.512-0.066-5.008-0.197-7.488l0.015 0.346c0.016-0.803 0.025-1.75 0.025-2.698 0-32.889-10.977-63.215-29.468-87.513l0.259 0.355c-19.484-20.785-39.694-40.104-60.918-58.272l-1.034-0.864c-14.322-11.805-26.337-25.777-35.696-41.513l-0.4-0.727c-9.984-16.896-14.592-35.328-27.392-56.064v-18.432h-51.2v18.432c1.651 24.507 7.518 47.243 16.886 68.064l-0.502-1.248c20.528 34.894 46.126 64.407 76.182 88.607l0.618 0.481c8.922 8.632 17.289 17.648 25.154 27.097l0.446 0.551c14.016 16.213 22.675 37.397 23.039 60.595l0.001 0.077c0.102 1.668 0.161 3.618 0.161 5.582 0 25.444-9.794 48.601-25.819 65.906l0.058-0.063c-17.59 16.091-41.116 25.949-66.945 25.949-2.929 0-5.827-0.127-8.692-0.375l0.372 0.026c-2.296 0.191-4.969 0.299-7.667 0.299-31.435 0-59.424-14.755-77.419-37.717l-0.162-0.214c-16.248-23.036-25.969-51.688-25.969-82.611 0-3.63 0.134-7.229 0.397-10.792l-0.028 0.476h-59.904c-0.271 3.737-0.426 8.096-0.426 12.491 0 46.532 17.339 89.014 45.908 121.337l-0.17-0.196c30.227 31.691 72.779 51.397 119.934 51.397 2.837 0 5.657-0.071 8.459-0.212l-0.393 0.016c3.187 0.217 6.907 0.341 10.656 0.341 41.606 0 79.652-15.247 108.854-40.458l-0.214 0.181zM540.928 246.784c8.069-7.985 13.066-19.061 13.066-31.304 0-0.335-0.004-0.669-0.011-1.002l0.001 0.050c0.023-0.519 0.036-1.127 0.036-1.739 0-12.387-5.332-23.528-13.825-31.255l-0.034-0.031c-8.622-8.068-20.244-13.023-33.024-13.023s-24.402 4.955-33.051 13.048l0.027-0.025c-8.23 8.009-13.336 19.193-13.336 31.569 0 0.512 0.009 1.022 0.026 1.529l-0.002-0.074c-0.034 0.63-0.054 1.367-0.054 2.109 0 11.889 5.034 22.602 13.086 30.125l0.024 0.022c7.987 8.083 19.072 13.089 31.326 13.089 0.597 0 1.191-0.012 1.783-0.035l-0.085 0.003c0.618 0.030 1.343 0.047 2.072 0.047 12.462 0 23.755-5.002 31.982-13.109l-0.005 0.005z" />
<glyph unicode="&#xe923;" glyph-name="notices" horiz-adv-x="976" d="M374.329 49.778c0-62.838 50.94-113.778 113.778-113.778s113.778 50.94 113.778 113.778v0 37.926h-227.556zM948.148 188.966l-155.876 75.852v277.997c0 0.045 0 0.099 0 0.153 0 140.612-95.652 258.884-225.439 293.296l-2.117 0.477v47.407c0 41.892-33.96 75.852-75.852 75.852s-75.852-33.96-75.852-75.852v0-47.407c-131.903-34.889-227.556-153.161-227.556-293.773 0-0.054 0-0.108 0-0.161v0.008-279.135l-155.876-75.852c-37.926-14.033-37.926-25.41 3.793-25.41h910.222c42.477 1.138 42.477 12.516 4.551 26.548z" />
<glyph unicode="&#xe924;" glyph-name="myphone" horiz-adv-x="819" d="M583.68-64h-440.32c-140.288 0-143.36 6.656-143.36 144.64v734.72c0 137.984-2.304 144.64 143.36 144.64h532.48c134.656 0 143.36 0 143.36-144.64v-770.816c0-116.224-10.24-108.544-143.36-108.544zM87.040 908.8c-1.065 0.124-2.298 0.194-3.548 0.194-17.956 0-32.512-14.556-32.512-32.512 0-1.331 0.080-2.644 0.236-3.934l-0.015 0.155v-849.408c-0.14-1.134-0.22-2.447-0.22-3.778 0-17.956 14.556-32.512 32.512-32.512 1.25 0 2.484 0.071 3.697 0.208l-0.149-0.014h645.12c1.065-0.124 2.298-0.194 3.548-0.194 17.956 0 32.512 14.556 32.512 32.512 0 1.331-0.080 2.644-0.236 3.934l0.015-0.155v849.408c0.14 1.134 0.22 2.447 0.22 3.778 0 17.956-14.556 32.512-32.512 32.512-1.25 0-2.484-0.071-3.697-0.208l0.149 0.014h-641.792zM423.168 36.864c-0.305-0.006-0.664-0.009-1.024-0.009-32.943 0-59.648 26.705-59.648 59.648s26.705 59.648 59.648 59.648c32.94 0 59.643-26.7 59.648-59.639v-0.001c0.001-0.153 0.002-0.333 0.002-0.514 0-32.481-26.186-58.845-58.599-59.134h-0.027zM640 217.6h-450.56c-1.065-0.124-2.298-0.194-3.548-0.194-17.956 0-32.512 14.556-32.512 32.512 0 1.331 0.080 2.644 0.236 3.934l-0.015-0.155v542.208c-0.14 1.134-0.22 2.447-0.22 3.778 0 17.956 14.556 32.512 32.512 32.512 1.25 0 2.484-0.071 3.697-0.208l-0.149 0.014h440.32c1.065 0.124 2.298 0.194 3.548 0.194 17.956 0 32.512-14.556 32.512-32.512 0-1.331-0.080-2.644-0.236-3.934l0.015 0.155v-542.208c0.14-1.134 0.22-2.447 0.22-3.778 0-17.956-14.556-32.512-32.512-32.512-1.25 0-2.484 0.071-3.697 0.208l0.149-0.014zM204.8 268.8h409.6v512h-409.6z" />
<glyph unicode="&#xe925;" glyph-name="exchange" d="M754.526 321.886c-0.568 0.046-1.229 0.072-1.897 0.072-13.582 0-24.64-10.804-25.049-24.287l-0.001-0.038c0-53.895-19.672-67.638-23.444-70.063h-104.556c-0.528-0.025-1.147-0.039-1.77-0.039-4.375 0-8.586 0.705-12.525 2.006l0.282-0.081v144.168h88.118c0.010 0 0.021 0 0.033 0 29.102 0 52.816 23.066 53.859 51.913l0.003 0.095v114.796c-1.045 28.942-24.76 52.008-53.862 52.008-0.012 0-0.023 0-0.035 0h-50.39l55.242 80.842c2.574 3.709 4.113 8.307 4.113 13.264 0 8.715-4.755 16.319-11.813 20.36l-0.115 0.060c-3.941 2.386-8.703 3.798-13.794 3.798-8.915 0-16.819-4.329-21.724-10.999l-0.052-0.075-73.297-107.789h-82.459l-116.143 118.029c-4.776 4.381-11.169 7.065-18.189 7.065s-13.414-2.685-18.209-7.083l0.020 0.018c-4.657-4.298-7.564-10.433-7.564-17.246s2.907-12.948 7.548-17.232l0.016-0.015 83.537-84.345h-65.752c-0.010 0-0.021 0-0.033 0-29.102 0-52.816-23.066-53.859-51.913l-0.003-0.095v-115.065c1.045-28.942 24.76-52.008 53.862-52.008 0.012 0 0.023 0 0.035 0h44.461c-14.085-70.26-64.64-126.011-130.671-147.29l-1.371-0.382c-10.454-2.85-18.013-12.261-18.013-23.436 0-2.502 0.379-4.915 1.082-7.186l-0.046 0.172c3.928-9.988 13.376-16.981 24.49-17.246l0.032-0.001c1.134-0.169 2.442-0.265 3.773-0.265s2.639 0.096 3.918 0.283l-0.146-0.017c88.48 27.297 154.423 101.521 169.311 192.892l0.188 1.399h92.429v-143.091c-0.071-0.927-0.111-2.008-0.111-3.098 0-11.298 4.345-21.58 11.455-29.268l-0.026 0.029c12.549-11.98 29.586-19.353 48.346-19.353 1.953 0 3.888 0.080 5.8 0.237l-0.251-0.017h112.371c7.006 0 66.829 14.013 66.829 118.029 0.076 0.733 0.119 1.583 0.119 2.444 0 13.504-10.68 24.513-24.055 25.041l-0.048 0.002zM344.657 421.053c-0.081-0.007-0.175-0.011-0.269-0.011-1.786 0-3.234 1.448-3.234 3.234 0 0.004 0 0.008 0 0.012v-0.001 116.143c0 0.003 0 0.007 0 0.011 0 1.786 1.448 3.234 3.234 3.234 0.095 0 0.189-0.004 0.282-0.012l-0.012 0.001h329.027c0.081 0.007 0.175 0.011 0.269 0.011 1.786 0 3.234-1.448 3.234-3.234 0-0.004 0-0.008 0-0.012v0.001-115.065c0.125-0.331 0.197-0.713 0.197-1.112 0-1.786-1.448-3.234-3.234-3.234-0.165 0-0.326 0.012-0.484 0.036l0.018-0.002zM512 960c-282.77 0-512-229.23-512-512s229.23-512 512-512c282.77 0 512 229.23 512 512v0c0 282.77-229.23 512-512 512v0zM512-10.105c-253.005 0-458.105 205.101-458.105 458.105s205.101 458.105 458.105 458.105c253.005 0 458.105-205.101 458.105-458.105v0c0-253.005-205.101-458.105-458.105-458.105v0z" />
<glyph unicode="&#xe926;" glyph-name="card" horiz-adv-x="1412" d="M858.748 465.655c19.501 0 35.31 15.809 35.31 35.31s-15.809 35.31-35.31 35.31v0h-117.23v4.237l113.699 113.699c5.277 6.134 8.491 14.176 8.491 22.968 0 19.501-15.809 35.31-35.31 35.31-8.792 0-16.834-3.213-23.014-8.53l0.047 0.039-99.222-97.103-99.222 97.457c-6.515 7.575-16.11 12.343-26.82 12.343-19.501 0-35.31-15.809-35.31-35.31 0-10.709 4.768-20.305 12.296-26.781l0.047-0.039 113.699-113.699v-4.59h-117.23c-19.501 0-35.31-15.809-35.31-35.31s15.809-35.31 35.31-35.31v0h117.23v-73.092h-117.23c-19.501 0-35.31-15.809-35.31-35.31s15.809-35.31 35.31-35.31v0h117.23v-103.459c0-19.501 15.809-35.31 35.31-35.31s35.31 15.809 35.31 35.31v0 103.812h117.23c19.501 0 35.31 15.809 35.31 35.31s-15.809 35.31-35.31 35.31v0h-117.23v72.739zM1377.103 554.99c19.501 0 35.31 15.809 35.31 35.31v0 228.458c0 0.008 0 0.018 0 0.028 0 78.005-63.236 141.241-141.241 141.241-0.993 0-1.984-0.010-2.973-0.031l0.148 0.002h-1124.281c-0.841 0.018-1.832 0.028-2.825 0.028-78.005 0-141.241-63.236-141.241-141.241 0-0.010 0-0.020 0-0.030v0.002-228.458c0-19.501 15.809-35.31 35.31-35.31v0c59.089 0 106.99-47.901 106.99-106.99s-47.901-106.99-106.99-106.99v0c-19.501 0-35.31-15.809-35.31-35.31v0-228.458c0-0.008 0-0.018 0-0.028 0-78.005 63.236-141.241 141.241-141.241 0.993 0 1.984 0.010 2.973 0.031l-0.148-0.002h1124.281c0.841-0.018 1.832-0.028 2.825-0.028 78.005 0 141.241 63.236 141.241 141.241 0 0.010 0 0.020 0 0.030v-0.002 228.458c0 19.501-15.809 35.31-35.31 35.31v0c-59.089 0-106.99 47.901-106.99 106.99s47.901 106.99 106.99 106.99v0zM1341.793 272.508v-195.266c0-0.017 0-0.037 0-0.057 0-39.003-31.618-70.621-70.621-70.621-0.993 0-1.982 0.021-2.966 0.061l0.141-0.005h-1124.281c-0.843-0.036-1.831-0.057-2.825-0.057-39.003 0-70.621 31.618-70.621 70.621 0 0.020 0 0.040 0 0.060v-0.003 196.679c84.029 14.599 147.113 86.972 147.113 174.080s-63.083 159.481-146.057 173.928l-1.055 0.152v196.679c0 0.017 0 0.037 0 0.057 0 39.003 31.618 70.621 70.621 70.621 0.993 0 1.982-0.021 2.966-0.061l-0.141 0.005h1124.281c0.843 0.036 1.831 0.057 2.825 0.057 39.003 0 70.621-31.618 70.621-70.621 0-0.020 0-0.040 0-0.060v0.003-196.679c-84.029-14.599-147.113-86.972-147.113-174.080s63.083-159.481 146.057-173.928l1.055-0.152z" />
<glyph unicode="&#xe927;" glyph-name="service" horiz-adv-x="995" d="M514.072 158.921c50.236 5.198 91.405 39.051 107.187 84.742l0.268 0.891c0 4.972 0 4.972-4.972 10.221-4.972 0-4.972 0-10.221-4.972 0 0-20.441-30.386-96.958-40.054h-30.662c-1.866-0.097-4.052-0.152-6.251-0.152-26.133 0-50.448 7.788-70.749 21.169l0.483-0.299h-10.221c-4.972 0-5.248-4.972 0-10.221 21.994-36.839 61.59-61.165 106.88-61.324h0.023zM908.81 623.547c-45.697 192.061-214.334 333.233-416.483 336.449l-0.354 0.004c-208.658-1.178-382.504-148.78-424.068-345.208l-0.504-2.847c-37.119-6.523-65.286-37.524-67.392-75.478l-0.009-0.21v-156.349c-0.025-0.742-0.039-1.615-0.039-2.491 0-44.395 35.989-80.384 80.384-80.384 0.305 0 0.609 0.002 0.914 0.005h-0.046c0.675-0.022 1.469-0.035 2.265-0.035 24.202 0 45.65 11.789 58.915 29.938l0.144 0.206c36.994-93.426 107.193-167.034 195.695-207.586l2.364-0.971c0 0.002 0 0.005 0 0.008 0 2.746 2.226 4.972 4.972 4.972 0.097 0 0.194-0.003 0.289-0.008l-0.013 0.001 5.248 4.972h4.972c-57.746 53.385-97.654 125.315-110.238 206.284l-0.255 1.996c-0.254 2.691-0.398 5.818-0.398 8.98 0 45.591 30.094 84.152 71.501 96.904l0.718 0.19c71.545 14.917 138.117 24.861 209.385 39.778 42.058 4.983 76.659 32.491 91.717 69.958l0.269 0.758c6.55 15.832 11.925 34.392 15.242 53.655l0.227 1.592c0 4.972 5.248 4.972 10.221 4.972s4.972 0 4.972-4.972c25.414-40.606 80.937-127.068 90.881-218.501 9.668-106.626 4.42-177.342-77.622-253.030v-4.972c0-2.746 2.226-4.972 4.972-4.972v0h4.972c80.635 46.103 141.997 118.109 173.448 204.487l0.856 2.689c12.296-17.023 29.807-29.608 50.166-35.471l0.661-0.163c-36.463-156.901-174.58-252.754-347.779-267.118-10.769 26.635-36.147 45.213-65.941 45.854l-0.079 0.001c-0.661 0.023-1.439 0.035-2.219 0.035-38.445 0-69.611-31.166-69.611-69.611 0-0.401 0.003-0.801 0.010-1.2l-0.001 0.060c-0.007-0.384-0.012-0.837-0.012-1.291 0-39.36 31.908-71.268 71.268-71.268 30.501 0 56.527 19.161 66.698 46.102l0.163 0.491c198.889 14.364 362.695 130.383 393.91 317.669 29.689 11.536 50.351 39.883 50.351 73.055 0 1.217-0.028 2.428-0.083 3.632l0.006-0.171v167.398c-3.617 44.852-40.335 80.037-85.518 81.21l-0.114 0.002zM832.017 578.244c-52.755 141.121-186.44 239.779-343.168 239.779-0.844 0-1.688-0.003-2.53-0.009l0.129 0.001c-156.963-0.946-291.152-97.442-347.415-234.218l-0.916-2.515c0 4.972 0 10.221-4.972 10.221 32.359 168.935 177.893 295.218 353.335 297.502l0.245 0.003c175.174-0.059 320.752-126.705 350.227-293.428l0.314-2.143c0.080-0.646 0.126-1.394 0.126-2.153 0-5.087-2.053-9.696-5.375-13.041l0.001 0.001z" />
<glyph unicode="&#xe928;" glyph-name="task" horiz-adv-x="916" d="M835.368 906.105h-107.789c0 29.765-24.129 53.895-53.895 53.895v0h-431.158c-29.765 0-53.895-24.129-53.895-53.895v0h-107.789c-44.648 0-80.842-36.194-80.842-80.842v0-808.421c0-44.648 36.194-80.842 80.842-80.842v0h754.526c44.648 0 80.842 36.194 80.842 80.842v0 808.421c0 44.648-36.194 80.842-80.842 80.842v0zM862.316 16.842c0-14.883-12.065-26.947-26.947-26.947v0h-754.526c-14.883 0-26.947 12.065-26.947 26.947v0 808.421c0 14.883 12.065 26.947 26.947 26.947v0h107.789c0-29.765 24.129-53.895 53.895-53.895v0h431.158c29.765 0 53.895 24.129 53.895 53.895v0h107.789c14.883 0 26.947-12.065 26.947-26.947v0zM391.545 307.335l-152.522 152.522-38.265-38.265 190.787-190.518 37.996 38.265 285.912 285.642-38.265 38.265-285.642-285.912z" />
<glyph unicode="&#xe929;" glyph-name="currency" horiz-adv-x="970" d="M390.467 62.383v37.187c-198.333 0.808-336.573 67.638-336.573 128v180.817c66.56-53.895 188.632-86.771 336.034-87.309v53.895c-197.794 0.539-336.034 67.638-336.034 126.922v181.086c67.099-53.895 191.057-87.309 339.267-87.309s272.168 34.223 339.267 87.309v-87.848c19.133 0 37.187-1.886 53.895-4.042v187.015c0.808 103.747-168.152 181.895-392.623 181.895s-393.701-78.147-393.701-181.895v-550.535c0-102.939 168.152-181.625 391.545-181.895-0.688 4.745-1.081 10.224-1.081 15.794 0 0.321 0.001 0.642 0.004 0.962v-0.049zM53.895 778.105c0 60.632 139.857 128 339.806 128s339.267-67.368 339.267-128v0c0-60.632-140.126-128.539-339.267-128.539s-339.806 67.907-339.806 128zM970.105 415.663c0 80.842-134.737 126.383-262.198 126.383s-262.198-44.194-262.198-126.383v-353.28c0-80.842 134.737-126.383 262.198-126.383s262.198 44.194 262.198 126.383zM916.211 62.383c0-29.642-80.842-72.488-208.034-72.488s-208.034 42.846-208.034 72.488v97.819c56.75-30.002 124.044-47.614 195.45-47.614 4.425 0 8.834 0.068 13.227 0.202l-0.644-0.016c3.75-0.119 8.159-0.186 12.583-0.186 71.407 0 138.7 17.612 197.773 48.729l-2.323-1.115zM916.211 238.888c0-29.642-80.842-72.488-208.034-72.488s-208.034 42.846-208.034 72.488v97.549c56.75-30.002 124.044-47.614 195.45-47.614 4.425 0 8.834 0.068 13.227 0.202l-0.644-0.016c3.75-0.119 8.159-0.186 12.583-0.186 71.407 0 138.7 17.612 197.773 48.729l-2.323-1.115zM916.211 415.124c0-29.642-80.842-72.488-208.034-72.488s-208.034 42.846-208.034 72.488v0c0 29.642 80.842 72.488 208.034 72.488s208.034-42.577 208.034-71.949z" />
<glyph unicode="&#xe92a;" glyph-name="mytaodo" horiz-adv-x="1153" d="M751.83 354.502c13.199 44.498 20.795 95.625 20.795 148.526 0 128.451-44.781 246.442-119.584 339.214l0.808-1.036c-77.488 90.937-173.548 131.922-275.372 115.272-171.627-28.498-244.313-151.134-297.466-240.79-71.405-120.715-110.149-361.826-54.434-528.010 21.31-75.665 74.481-135.969 143.731-166.499l1.64-0.645c48.521-19.795 104.792-31.507 163.736-32.019l0.206-0.001c0.373-0.001 0.814-0.002 1.256-0.002 60.962 0 118.498 14.674 169.266 40.682l-2.097-0.976c113.031 56.996 200.125 172.908 247.515 326.284zM476.138 87.455c-42.87-20.9-93.272-33.119-146.527-33.119-48.9 0-95.394 10.302-137.429 28.855l2.18-0.858c-53.207 24.053-92.708 70.385-106.986 126.768l-0.282 1.312c-49.311 145.371-13.769 365.348 48.67 471.014s120.395 188.598 252.958 210.051c9.613 1.611 20.7 2.541 32.001 2.562h0.019c75.111-2.918 141.065-39.72 183.359-95.461l0.436-0.599c64.4-80.729 103.336-184.245 103.336-296.856 0-45.228-6.281-88.989-18.018-130.459l0.815 3.369c-41.306-136.085-117.513-237.588-214.534-286.579zM327.565 748.028c-64.040-17.611-152.095-130.962-165.864-216.455-0.383-1.859-0.602-3.995-0.602-6.182 0-15.862 11.533-29.029 26.671-31.575l0.188-0.026h4.163c0.094-0.001 0.204-0.002 0.315-0.002 16.103 0 29.43 11.887 31.684 27.366l0.021 0.173c9.926 62.439 81.651 153.376 119.114 163.622 13.928 3.677 24.030 16.162 24.030 31.007 0 3.214-0.474 6.318-1.355 9.245l0.059-0.227c-3.711 13.878-16.172 23.931-30.982 23.931-2.641 0-5.207-0.32-7.662-0.923l0.22 0.046zM1092.203 419.502c-48.678 74.57-126.733 126.49-217.355 139.413l-1.661 0.194c-0.671 0.050-1.453 0.079-2.241 0.079-17.684 0-32.020-14.336-32.020-32.020 0-0.028 0-0.055 0-0.083v0.004c-0.107-0.981-0.167-2.118-0.167-3.269 0-16.954 13.177-30.831 29.849-31.948l0.097-0.005c72.46-11.868 133.42-53.373 171.033-111.412l0.594-0.978c29.609-39.73 47.404-89.783 47.404-143.992 0-18.646-2.105-36.801-6.091-54.239l0.313 1.628c-17.040-58.147-57.334-104.718-109.861-129.785l-1.249-0.537c-63.395-32.375-138.276-51.346-217.588-51.346-42.828 0-84.364 5.532-123.933 15.92l3.389-0.756c-3.208 1.184-6.913 1.868-10.778 1.868-13.878 0-25.694-8.829-30.138-21.177l-0.070-0.223c-1.478-3.553-2.336-7.68-2.336-12.007 0-13.933 8.9-25.788 21.324-30.19l0.224-0.069c37.403-12.847 80.498-20.264 125.327-20.264 2.995 0 5.982 0.033 8.961 0.099l-0.444-0.008c1.627-0.017 3.549-0.027 5.473-0.027 91.423 0 177.704 22.020 253.827 61.046l-3.139-1.462c69.529 34.528 121.398 95.808 142.657 170.020l0.472 1.927c5.386 21.45 8.476 46.075 8.476 71.421 0 68.64-22.663 131.988-60.915 182.967l0.567-0.789z" />
<glyph unicode="&#xe92b;" glyph-name="message" horiz-adv-x="1229" d="M1126.4 960h-1024c-56.554 0-102.4-45.846-102.4-102.4v0-648.533c0-56.554 45.846-102.4 102.4-102.4v0h375.467l109.227-155.989c6.25-8.872 16.451-14.597 27.989-14.597s21.739 5.725 27.917 14.489l0.072 0.108 107.861 155.989h375.467c56.554 0 102.4 45.846 102.4 102.4v0 648.533c0 56.554-45.846 102.4-102.4 102.4v0zM831.147 593.749l329.387 261.12v-594.603zM68.267 260.267v594.603l329.045-261.12zM131.413 891.733h965.973l-482.987-382.976zM733.867 174.933c-11.551-0.020-21.754-5.774-27.917-14.568l-0.073-0.11-91.477-130.731-91.477 130.731c-6.235 8.903-16.438 14.658-27.986 14.677h-392.536c-6.378 0.29-12.237 2.287-17.196 5.541l0.129-0.080 365.909 370.005 141.995-112.64c5.758-4.582 13.137-7.352 21.163-7.352s15.404 2.77 21.232 7.406l-0.070-0.054 141.995 112.64 366.251-370.005c-4.924-3.231-10.911-5.237-17.35-5.46l-0.058-0.002z" />
<glyph unicode="&#xe92c;" glyph-name="none" d="M512 903.111c251.351 0 455.111-203.76 455.111-455.111s-203.76-455.111-455.111-455.111c-251.351 0-455.111 203.76-455.111 455.111v0c0 251.351 203.76 455.111 455.111 455.111v0zM512 960c-282.77 0-512-229.23-512-512s229.23-512 512-512c282.77 0 512 229.23 512 512v0c0 282.77-229.23 512-512 512v0z" />
<glyph unicode="&#xe92d;" glyph-name="ok" d="M512 960c-282.77 0-512-229.23-512-512s229.23-512 512-512c282.77 0 512 229.23 512 512v0c0 282.77-229.23 512-512 512v0zM441.742 246.898l-201.387 201.102 40.107 40.107 160.996-160.996 301.796 301.796 40.391-38.684z" />
<glyph unicode="&#xe92e;" glyph-name="new" horiz-adv-x="924" d="M232.078 403.905l35.704 59.448h432.915l-1.785-5.177 4.642 5.177h66.767c-11.425 107.113-64.625 183.342-107.113 210.298 1.25-8.569 23.386-169.953-13.389-198.338s18.566 300.452-253.501 484.686c-21.423-350.616-130.499-313.841-247.967-496.647h75.872l7.855-59.448zM756.753 142.014h-149.78l4.106 13.925-12.318-13.925h-487.9l-9.997 65.874-14.817-25.172c30.17-140.318 172.987-246.717 344.904-246.717 33.727 0.037 66.464 4.201 97.756 12.013l-2.782-0.588 15.71-1.785c55.454 11.809 104.063 35.634 144.884 68.696l-0.639-0.501c50.426 43.609 87.857 100.979 106.518 166.271l0.595 2.432-35.704-41.060zM221.902 195.57h-56.413l-22.672 142.639c-0.915 4.959-1.438 10.666-1.438 16.495 0 0.477 0.004 0.954 0.010 1.429l-0.001-0.072q-5.177-11.425-19.28-35.704l-73.729-124.965h-48.379l125.858 214.226h64.982l17.852-126.75c1.25-8.391 1.964-13.746 1.964-16.067v0c4.973 10.968 9.919 20.103 15.409 28.861l-0.592-1.012 67.481 114.968h53.556l-125.858-214.226zM426.667 195.57h-146.566l125.858 214.226h142.817l-21.066-35.704h-89.261l-31.42-53.556h82.12l-21.066-35.704h-82.834l-31.42-53.556h93.902l-20.887-35.704zM923.671 409.796l-190.483-214.226h-63.018l40.167 137.462c2.783 8.92 6.114 16.603 10.144 23.844l-0.325-0.637c-5.98-8.742-11.845-16.308-18.113-23.514l0.26 0.306-122.287-137.462h-64.625l61.233 214.226h60.519l-46.951-137.819c-3.307-8.972-6.794-16.505-10.794-23.714l0.439 0.863h1.071c5.801 8.864 11.676 16.553 18.049 23.793l-0.197-0.228 123.358 137.105h63.911l-42.845-139.068c-2.775-8.466-5.796-15.609-9.323-22.449l0.397 0.848c5.465 8.426 10.929 15.706 16.837 22.595l-0.234-0.28 114.611 138.354z" />
<glyph unicode="&#xe92f;" glyph-name="gamegift" horiz-adv-x="1187" d="M1140.364 797.091h-139.636v162.909l-407.273-150.807-407.273 150.807v-162.909h-139.636c-25.706 0-46.545-20.839-46.545-46.545v0-139.636c0-25.706 20.839-46.545 46.545-46.545v0h1093.818c25.706 0 46.545 20.839 46.545 46.545v0 139.636c0 25.706-20.839 46.545-46.545 46.545v0zM674.909 494.545h395.636c25.706 0 46.545-20.839 46.545-46.545v-465.455c0-25.706-20.839-46.545-46.545-46.545h-395.636c-25.706 0-46.545 20.839-46.545 46.545v465.455c0 25.706 20.839 46.545 46.545 46.545zM116.364 494.545h395.636c25.706 0 46.545-20.839 46.545-46.545v-465.455c0-25.706-20.839-46.545-46.545-46.545h-395.636c-25.706 0-46.545 20.839-46.545 46.545v465.455c0 25.706 20.839 46.545 46.545 46.545z" />
<glyph unicode="&#xe930;" glyph-name="gamelists" horiz-adv-x="1050" d="M51.2 499.2h179.2c28.277 0 51.2-22.923 51.2-51.2v0-460.8c0-28.277-22.923-51.2-51.2-51.2v0h-179.2c-28.277 0-51.2 22.923-51.2 51.2v0 460.8c0 28.277 22.923 51.2 51.2 51.2v0zM435.2 960h179.2c28.277 0 51.2-22.923 51.2-51.2v0-921.6c0-28.277-22.923-51.2-51.2-51.2v0h-179.2c-28.277 0-51.2 22.923-51.2 51.2v0 921.6c0 28.277 22.923 51.2 51.2 51.2v0zM819.2 627.2h179.2c28.277 0 51.2-22.923 51.2-51.2v0-588.8c0-28.277-22.923-51.2-51.2-51.2v0h-179.2c-28.277 0-51.2 22.923-51.2 51.2v0 588.8c0 28.277 22.923 51.2 51.2 51.2v0z" />
<glyph unicode="&#xe931;" glyph-name="share" d="M974.049 85.854c0-55.175-44.728-99.902-99.902-99.902v0h-724.293c-55.175 0-99.902 44.728-99.902 99.902v0 724.293c0 55.175 44.728 99.902 99.902 99.902v0h424.585v49.951h-424.585c-82.762 0-149.854-67.092-149.854-149.854v0-724.293c0-82.762 67.092-149.854 149.854-149.854v0h724.293c82.762 0 149.854 67.092 149.854 149.854v0 424.585h-49.951zM974.049 960h-274.732v-49.951h241.015l-577.436-577.436 35.216-35.216 575.938 575.688v-237.768h49.951v274.732c0 27.587-22.364 49.951-49.951 49.951v0z" />
<glyph unicode="&#xe932;" glyph-name="comment" horiz-adv-x="1218" d="M1107.027 960h-996.324c-61.139 0-110.703-49.563-110.703-110.703v0-664.216c0-61.139 49.563-110.703 110.703-110.703v0h349.267l158.028-138.378 156.921 138.378h332.108c61.139 0 110.703 49.563 110.703 110.703v0 664.216c0 61.139-49.563 110.703-110.703 110.703v0zM1162.378 185.081c0-30.57-24.782-55.351-55.351-55.351v0h-351.481l-138.378-120.112-135.611 120.112h-370.854c-30.57 0-55.351 24.782-55.351 55.351v0 664.216c0 30.57 24.782 55.351 55.351 55.351v0h996.324c30.57 0 55.351-24.782 55.351-55.351v0zM673.349 510.27c0-30.57-24.782-55.351-55.351-55.351s-55.351 24.782-55.351 55.351c0 30.57 24.782 55.351 55.351 55.351s55.351-24.782 55.351-55.351zM950.106 510.27c0-30.57-24.782-55.351-55.351-55.351s-55.351 24.782-55.351 55.351c0 30.57 24.782 55.351 55.351 55.351s55.351-24.782 55.351-55.351zM396.592 510.27c0-30.57-24.782-55.351-55.351-55.351s-55.351 24.782-55.351 55.351c0 30.57 24.782 55.351 55.351 55.351s55.351-24.782 55.351-55.351z" />
</font>
</defs>
</svg>
